<?xml version="1.0" encoding="utf-8"?>
<!-- Generator: Adobe Illustrator 18.0.0, SVG Export Plug-In . SVG Version: 6.00 Build 0)  -->
<!DOCTYPE svg PUBLIC "-//W3C//DTD SVG 1.1//EN" "http://www.w3.org/Graphics/SVG/1.1/DTD/svg11.dtd">
<svg version="1.1" id="Capa_1" xmlns="http://www.w3.org/2000/svg" xmlns:xlink="http://www.w3.org/1999/xlink" x="0px" y="0px"
	 viewBox="0 0 1000 450" enable-background="new 0 0 1000 450" xml:space="preserve">
<g>
	<g>
		<path fill="#D14633" d="M498.4,242.5c0.5,0,0.9,0,1.5,0c0.2,0,0.4,0,0.6,0c0.3,0,0.7,0,0.9,0c27.3-0.5,49.4-10.1,65.7-28.4
			c35.9-40.4,29.9-109.8,29.3-116.4C594,48,570.5,24.2,551.1,13.1C536.7,4.8,519.8,0.4,501,0h-0.7c-0.1,0-0.3,0-0.4,0h-0.6
			c-10.3,0-30.7,1.7-50.1,12.8c-19.6,11.1-43.4,34.9-45.8,84.9c-0.7,6.6-6.6,75.9,29.3,116.4C449,232.4,471.1,242,498.4,242.5z
			 M428.4,100c0-0.3,0.1-0.6,0.1-0.7c3.1-66.8,50.5-74,70.8-74h0.4c0.2,0,0.5,0,0.7,0c25.2,0.6,67.9,10.8,70.8,74
			c0,0.3,0,0.6,0.1,0.7c0.1,0.7,6.6,64-23,97.4c-11.7,13.2-27.4,19.8-48,19.9c-0.2,0-0.3,0-0.5,0l0,0c-0.2,0-0.3,0-0.5,0
			c-20.5-0.2-36.2-6.7-47.9-19.9C422,164.2,428.3,100.5,428.4,100z"/>
		<path fill="#D14633" d="M691.4,357.5c0-0.1,0-0.2,0-0.3c0-0.7-0.1-1.5-0.1-2.3c-0.6-18.5-1.8-61.6-42.2-75.4
			c-0.3-0.1-0.7-0.2-0.9-0.3c-42-10.7-77-34.9-77.3-35.2c-5.7-4-13.5-2.6-17.5,3.1c-4,5.7-2.6,13.5,3.1,17.5
			c1.6,1.1,38.7,26.9,85.1,38.9c21.7,7.7,24.1,30.9,24.8,52.2c0,0.8,0,1.6,0.1,2.3c0.1,8.4-0.5,21.3-2,28.8
			c-15.1,8.6-74.3,38.2-164.3,38.2c-89.6,0-149.2-29.7-164.4-38.3c-1.5-7.5-2.1-20.4-2-28.8c0-0.7,0.1-1.5,0.1-2.3
			c0.7-21.2,3.1-44.5,24.8-52.2c46.4-11.9,83.5-37.8,85.1-38.9c5.7-4,7.1-11.8,3.1-17.5c-4-5.7-11.8-7.1-17.5-3.1
			c-0.4,0.3-35.1,24.5-77.3,35.2c-0.4,0.1-0.7,0.2-0.9,0.3c-40.4,13.9-41.7,57-42.2,75.4c0,0.8,0,1.6-0.1,2.3c0,0.1,0,0.2,0,0.3
			c-0.1,4.8-0.2,29.7,4.8,42.2c0.9,2.4,2.6,4.5,4.8,5.9C321,407.3,388,450,500.1,450s179.1-42.8,181.9-44.5c2.1-1.4,3.9-3.4,4.8-5.9
			C691.5,387.2,691.5,362.3,691.4,357.5z"/>
	</g>
</g>
</svg>
