<?xml version="1.0" encoding="utf-8"?>
<!-- Generator: Adobe Illustrator 24.2.3, SVG Export Plug-In . SVG Version: 6.00 Build 0)  -->
<svg version="1.1" id="Capa_1" xmlns="http://www.w3.org/2000/svg" xmlns:xlink="http://www.w3.org/1999/xlink" x="0px" y="0px"
	 viewBox="0 0 1000 450" style="enable-background:new 0 0 1000 450;" xml:space="preserve">
<style type="text/css">
	.st0{fill:#282828;}
</style>
<path class="st0" d="M721.1,205.3L500,0L278.9,205.3c-3.1,2.9-3.3,7.8-0.4,10.9c2.9,3.1,7.8,3.3,10.9,0.4l25.6-23.8V450h123.4h123.4
	H685V192.9l25.6,23.8c1.5,1.4,3.4,2.1,5.3,2.1c2.1,0,4.1-0.8,5.6-2.5C724.4,213.1,724.2,208.2,721.1,205.3z M453.7,434.6V311.2
	c0-25.5,20.7-46.3,46.3-46.3c25.5,0,46.3,20.7,46.3,46.3v123.4H453.7z M669.6,434.6H561.7V311.2c0-34-27.7-61.7-61.7-61.7
	s-61.7,27.7-61.7,61.7v123.4H330.4v-256L500,21l169.6,157.5V434.6z"/>
</svg>
