<?xml version="1.0" encoding="utf-8"?>
<!-- Generator: Adobe Illustrator 24.2.3, SVG Export Plug-In . SVG Version: 6.00 Build 0)  -->
<svg version="1.1" id="Capa_1" xmlns="http://www.w3.org/2000/svg" xmlns:xlink="http://www.w3.org/1999/xlink" x="0px" y="0px"
	 viewBox="0 0 1000 450" style="enable-background:new 0 0 1000 450;" xml:space="preserve">
<style type="text/css">
	.st0{fill:#D14633;}
</style>
<path class="st0" d="M702.6,102h-301c-12.4,0-22.5-8-22.5-17.9s10.1-17.9,22.5-17.9h300.9c12.4,0,22.5,8,22.5,17.9
	S715,102,702.6,102z"/>
<ellipse class="st0" cx="299.3" cy="85.6" rx="24.3" ry="24"/>
<path class="st0" d="M702.6,242.8h-301c-12.4,0-22.5-8-22.5-17.9s10.1-17.9,22.5-17.9h300.9c12.4,0,22.5,8,22.5,17.9
	S715,242.8,702.6,242.8z"/>
<ellipse class="st0" cx="299.3" cy="226.4" rx="24.3" ry="24"/>
<path class="st0" d="M702.6,381.9h-301c-12.4,0-22.5-8-22.5-17.9s10.1-17.9,22.5-17.9h300.9c12.4,0,22.5,8,22.5,17.9
	S715,381.9,702.6,381.9z"/>
<ellipse class="st0" cx="299.3" cy="365.5" rx="24.3" ry="24"/>
</svg>
