<?xml version="1.0" encoding="utf-8"?>
<!-- Generator: Adobe Illustrator 18.0.0, SVG Export Plug-In . SVG Version: 6.00 Build 0)  -->
<!DOCTYPE svg PUBLIC "-//W3C//DTD SVG 1.1//EN" "http://www.w3.org/Graphics/SVG/1.1/DTD/svg11.dtd">
<svg version="1.1" id="Layer_1" xmlns="http://www.w3.org/2000/svg" xmlns:xlink="http://www.w3.org/1999/xlink" x="0px" y="0px"
	 viewBox="0 0 59.8 60" enable-background="new 0 0 59.8 60" xml:space="preserve">
<g>
	<path fill="#D73C18" d="M51.6,0H8.2C3.7,0,0,3.7,0,8.2v34.8c0,4.5,3.7,8.2,8.2,8.2h2.9c2.6,2.7,6.6,6.7,8,8c2,1.9,2.6,0.2,2.6,0.2
		l0.2-8.2h29.9c4.5,0,8.2-3.7,8.2-8.2V8.2C59.8,3.7,56.2,0,51.6,0z"/>
	<g>
		<path fill="#FAFAFA" d="M14.1,31.3h-4c-1.1,0-2-0.9-2-2s0.9-2,2-2h4c1.1,0,2-0.9,2-2s-0.9-2-2-2c-3.3,0-5.9-2.7-5.9-5.9
			s2.7-5.9,5.9-5.9h4c1.1,0,2,0.9,2,2s-0.9,2-2,2h-4c-1.1,0-2,0.9-2,2s0.9,2,2,2c3.3,0,5.9,2.7,5.9,5.9S17.3,31.3,14.1,31.3z"/>
		<path fill="#FAFAFA" d="M45.7,31.3h-4c-1.1,0-2-0.9-2-2s0.9-2,2-2h4c1.1,0,2-0.9,2-2s-0.9-2-2-2c-3.3,0-5.9-2.7-5.9-5.9
			s2.7-5.9,5.9-5.9h4c1.1,0,2,0.9,2,2s-0.9,2-2,2h-4c-1.1,0-2,0.9-2,2s0.9,2,2,2c3.3,0,5.9,2.7,5.9,5.9S49,31.3,45.7,31.3z"/>
		<path fill="#FAFAFA" d="M33.9,31.3c-1.1,0-2-0.9-2-2v-7.4l-0.2,0.4c-0.7,1.3-2.9,1.3-3.5,0l-0.2-0.4v7.4c0,1.1-0.9,2-2,2
			s-2-0.9-2-2V13.5c0-0.9,0.6-1.7,1.5-1.9c0.9-0.2,1.8,0.2,2.2,1l2.2,4.4l2.2-4.4c0.4-0.8,1.3-1.3,2.2-1c0.9,0.2,1.5,1,1.5,1.9v15.8
			C35.8,30.4,35,31.3,33.9,31.3z"/>
	</g>
</g>
<g>
</g>
<g>
</g>
<g>
</g>
<g>
</g>
<g>
</g>
<g>
</g>
<g>
</g>
<g>
</g>
<g>
</g>
<g>
</g>
<g>
</g>
<g>
</g>
<g>
</g>
<g>
</g>
<g>
</g>
</svg>
